<!-- Created with Inkscape (http://www.inkscape.org/) -->
<svg width="191.1" height="66.025" version="1.1" viewBox="0 0 191.1 66.025" xml:space="preserve" xmlns="http://www.w3.org/2000/svg" xmlns:xlink="http://www.w3.org/1999/xlink"><defs><linearGradient id="linearGradient80" x1="5.01" x2="861.13" y1="228.09" y2="228.09" gradientTransform="matrix(.21401 0 0 -.21401 -1.0701 64.224)" gradientUnits="userSpaceOnUse"><stop stop-color="#00b1eb" offset="0"/><stop stop-color="#00abe6" stop-opacity="0" offset="1"/></linearGradient></defs><style>
    .st0{fill:#1f3368}
  </style><path d="m180.3 0c-4.8707 0-9.6562 3.0926-9.6562 8.7246 0 9.7827 13.383 8.4715 13.383 12.578 0 1.652-1.6507 2.4141-3.3027 2.4141-2.3293 0-4.1508-0.80502-6.4375-2.541-0.33866-0.296-0.7216-0.21335-0.9336 0.08399l-3.2598 3.6855c-0.25466 0.296-0.212 0.63401 0 0.88867 1.948 2.244 5.9286 4.7012 10.418 4.7012 4.9973 0 10.588-2.9231 10.588-9.1484 0-10.419-13.383-8.2989-13.383-12.492 0-1.016 0.84723-2.0762 2.8379-2.0762 1.8213 0 3.092 0.59352 5.252 1.9922 0.33866 0.21067 0.634 0.16874 0.88866-0.16992l3.0918-3.8555c0.212-0.33867 0.21202-0.59267-0.084-0.88867-2.5413-2.3293-5.465-3.8965-9.4023-3.8965zm-170.07 0.33984c-0.38 0-0.63476 0.25343-0.63476 0.63477v28.375c0 0.38 0.25476 0.63476 0.63476 0.63476h9.3184c10.08 0 15.543-6.6489 15.543-14.822 0-8.216-5.463-14.822-15.543-14.822zm28.574 0c-0.38133 0-0.63477 0.25343-0.63477 0.63477v28.373c0 0.38133 0.25344 0.63672 0.63477 0.63672h5.9727c0.38 0 0.63476-0.25538 0.63476-0.63672v-28.373c0-0.38133-0.25476-0.63477-0.63476-0.63477zm40.5 0c-0.38 0-0.63477 0.25343-0.63477 0.63477v28.373c0 0.38133 0.25477 0.63672 0.63477 0.63672h10.715c7.624 0 11.182-2.9224 11.182-8.5117 0-3.9813-3.0491-6.5225-5.7598-7.2852 1.736-0.76133 3.4297-2.9643 3.4297-6.0977 0-4.3627-3.2179-7.75-8.8926-7.75zm25.58 0c-0.38133 0-0.63477 0.25343-0.63477 0.63477v28.375c0 0.38 0.25344 0.63476 0.63477 0.63476h16.18c0.38 0 0.63476-0.25476 0.63476-0.63476v-5.082c0-0.38133-0.25476-0.63477-0.63476-0.63477h-9.5723v-5.2812h8.9356c0.38133 0 0.63672-0.25539 0.63672-0.63672v-5.082c0-0.38133-0.25539-0.63476-0.63672-0.63476h-8.9356v-5.3066h9.5293c0.38133 0 0.63476-0.25343 0.63476-0.63477v-5.082c0-0.38133-0.25343-0.63477-0.63476-0.63477zm20.613 0c-0.38133 0-0.63477 0.25343-0.63477 0.63477v5.082c0 0.38133 0.25344 0.63477 0.63477 0.63477h6.2246v22.658c0 0.38133 0.25539 0.63476 0.63672 0.63476h5.9707c0.38133 0 0.63477-0.25343 0.63477-0.63476v-22.658h6.2266c0.38 0 0.63476-0.25343 0.63476-0.63477v-5.082c0-0.38133-0.25476-0.63477-0.63476-0.63477zm24.436 0c-0.38134 0-0.63477 0.25404-0.63477 0.85938v28.375c0 0.156 0.25343 0.41016 0.63477 0.41016h16.178c0.38 0 0.63477-0.25476 0.63477-0.63476v-5.082c0-0.38133-0.25477-0.63477-0.63477-0.63477h-9.5723v-5.2812h8.9375c0.38133 0 0.63476-0.25539 0.63476-0.63672v-5.082c0-0.38133-0.25343-0.63476-0.63476-0.63476h-8.9375v-5.3066h9.5293c0.38 0 0.63477-0.25343 0.63477-0.63477v-5.082c0-0.38133-0.25477-0.63477-0.63477-0.63477zm-90.66 0.04688c-0.33867 0-0.59404 0.16915-0.7207 0.50781l-10.205 28.416c-0.16933 0.424 0.0425 0.7207 0.50781 0.7207h6.2246c0.33867 0 0.59404-0.12648 0.7207-0.50781l1.3555-4.3203h9.7402l1.3965 4.3203c0.12667 0.38133 0.38204 0.50781 0.72071 0.50781h6.2246c0.46667 0 0.67715-0.2967 0.50782-0.7207l-10.248-28.416c-0.12667-0.33867-0.46469-0.50781-0.80469-0.50781zm-42.436 6.3047h2.7109c5.4627 0 8.2148 3.008 8.2148 8.4707 0 5.4213-2.7522 8.4688-8.2148 8.4688h-2.7109zm69.074 0h3.3867c1.6093 0 2.8809 0.54976 2.8809 2.3711 0 1.864-1.2289 2.541-2.8809 2.541h-3.3867zm-23.887 4.0645 2.9238 8.8633h-5.8457zm23.887 6.7773h4.4043c1.9053 0 3.6856 0.72085 3.6856 2.9648 0 2.1173-1.5256 3.1328-3.6856 3.1328h-4.4043zm-61.295 17.957c-8.512 0-15.416 6.6917-15.416 15.289 0 8.512 6.904 15.246 15.416 15.246 4.1933 0 7.9609-1.651 10.545-4.4043 0.296-0.33866 0.212-0.59329 0-0.89062l-3.6836-3.9805c-0.212-0.296-0.59463-0.33865-0.89063-0.084-1.568 1.3973-3.5574 2.2441-6.0547 2.2441-4.4467 0-7.877-3.5149-7.877-8.1309 0-4.7013 3.4303-8.2168 7.877-8.2168 2.4973 0 4.4867 0.8901 6.0547 2.2461 0.296 0.25333 0.67863 0.25303 0.89063-0.04297l3.6836-3.9805c0.212-0.296 0.296-0.59462 0-0.89062-2.584-2.7947-6.3516-4.4043-10.545-4.4043zm22.926 0.33984c-0.33866 0-0.59403 0.16915-0.7207 0.50781l-10.207 28.418c-0.16934 0.42266 0.0425 0.71875 0.50781 0.71875h6.2266c0.33867 0 0.59209-0.12781 0.71875-0.50781l1.3574-4.3203h9.7402l1.3965 4.3203c0.128 0.38 0.38204 0.50781 0.72071 0.50781h6.2246c0.46666 0 0.67714-0.29609 0.50781-0.71875l-10.248-28.418c-0.12667-0.33866-0.46469-0.50781-0.80469-0.50781zm19.596 0c-0.38134 0-0.63477 0.25343-0.63477 0.63477v28.375c0 0.38134 0.25343 0.63477 0.63477 0.63477h5.9707c0.38133 0 0.63476-0.25343 0.63476-0.63477v-17.152l9.6133 17.363c0.16933 0.296 0.425 0.42383 0.76367 0.42383h6.6484c0.38 0 0.63477-0.25343 0.63477-0.63477v-28.375c0-0.38133-0.25477-0.63477-0.63477-0.63477h-5.9707c-0.38133 0-0.63476 0.25343-0.63476 0.63477v17.195l-9.6133-17.408c-0.16933-0.296-0.425-0.42188-0.76367-0.42188zm37.904 0c-0.33867 0-0.59403 0.16915-0.7207 0.50781l-10.205 28.418c-0.16933 0.42266 0.0425 0.71875 0.50781 0.71875h6.2246c0.33867 0 0.59404-0.12781 0.72071-0.50781l1.3555-4.3203h9.7402l1.3965 4.3203c0.128 0.38 0.38204 0.50781 0.72071 0.50781h6.2246c0.46666 0 0.67848-0.29609 0.50781-0.71875l-10.248-28.418c-0.12667-0.33866-0.46469-0.50781-0.80469-0.50781zm19.82 0c-0.38133 0-0.63476 0.25343-0.63476 0.63477v28.373c0 0.38133 0.25343 0.63672 0.63476 0.63672h9.3164c10.079 0 15.543-6.6489 15.543-14.822 0-8.216-5.4643-14.822-15.543-14.822zm34.729 0c-0.33867 0-0.59404 0.16915-0.7207 0.50781l-10.207 28.418c-0.16934 0.42266 0.0444 0.71875 0.50976 0.71875h6.2246c0.33867 0 0.59404-0.12781 0.7207-0.50781l1.3555-4.3203h9.7402l1.3965 4.3203c0.12666 0.38 0.38202 0.50781 0.72069 0.50781h6.2246c0.46667 0 0.67848-0.29609 0.50782-0.71875l-10.248-28.418c-0.12667-0.33866-0.46469-0.50781-0.80469-0.50781zm-28.121 6.3535h2.709c5.4627 0 8.2168 3.0061 8.2168 8.4688 0 5.4213-2.7541 8.4707-8.2168 8.4707h-2.709zm-81.176 3.2168 2.9219 9.1484h-5.8438zm57.5 0 2.9219 9.1484h-5.8438zm54.549 0 2.9219 9.1484h-5.8438z" fill="#1f3368"/><path d="m4.8367 10.571c-2.6752 0-4.8367 2.1615-4.8367 4.8367 0 2.6752 2.1615 4.8367 4.8367 4.8367h178.38l-13.247-9.6948z" fill="url(#linearGradient80)" stroke-width=".21401"/></svg>
